HIERARCHY
ROOT Hips
{
	OFFSET 56.877701 -32.693596 43.373703
	CHANNELS 6 Xposition Yposition Zposition Zrotation Xrotation Yrotation
	JOINT Chest
	{
		OFFSET -0.779999 1.005800 5.403099
		CHANNELS 6 Xposition Yposition Zposition Zrotation Xrotation Yrotation
		JOINT Chest2
		{
			OFFSET 0.000000 0.000000 4.236801
			CHANNELS 6 Xposition Yposition Zposition Zrotation Xrotation Yrotation
			JOINT Neck
			{
				OFFSET 0.000000 0.000000 9.874401
				CHANNELS 6 Xposition Yposition Zposition Zrotation Xrotation Yrotation
				JOINT Head
				{
					OFFSET 0.000000 0.000002 2.173893
					CHANNELS 6 Xposition Yposition Zposition Zrotation Xrotation Yrotation
					End Site
					{
						OFFSET 0.000000 0.000000 6.508102
					}
				}
			}
			JOINT LeftCollar
			{
				OFFSET 2.681599 -0.377600 5.432499
				CHANNELS 6 Xposition Yposition Zposition Zrotation Xrotation Yrotation
				JOINT LeftShoulder
				{
					OFFSET 5.161499 0.000000 0.000000
					CHANNELS 6 Xposition Yposition Zposition Zrotation Xrotation Yrotation
					JOINT LeftElbow
					{
						OFFSET 0.000000 0.000000 -10.869099
						CHANNELS 6 Xposition Yposition Zposition Zrotation Xrotation Yrotation
						JOINT LeftWrist
						{
							OFFSET 0.000000 0.000000 -13.344799
							CHANNELS 6 Xposition Yposition Zposition Zrotation Xrotation Yrotation
							End Site
							{
								OFFSET 0.000000 0.000000 -2.173901
							}
						}
					}
				}
			}
			JOINT RightCollar
			{
				OFFSET -2.381901 -1.419600 6.136600
				CHANNELS 6 Xposition Yposition Zposition Zrotation Xrotation Yrotation
				JOINT RightShoulder
				{
					OFFSET -4.550499 0.000000 0.000000
					CHANNELS 6 Xposition Yposition Zposition Zrotation Xrotation Yrotation
					JOINT RightElbow
					{
						OFFSET 0.000000 0.000000 -11.106499
						CHANNELS 6 Xposition Yposition Zposition Zrotation Xrotation Yrotation
						JOINT RightWrist
						{
							OFFSET 0.000000 0.000000 -12.874298
							CHANNELS 6 Xposition Yposition Zposition Zrotation Xrotation Yrotation
							End Site
							{
								OFFSET 0.000000 0.000000 -2.173901
							}
						}
					}
				}
			}
		}
	}
	JOINT LeftHip
	{
		OFFSET 2.431900 0.469601 -2.489399
		CHANNELS 6 Xposition Yposition Zposition Zrotation Xrotation Yrotation
		JOINT LeftKnee
		{
			OFFSET 0.000000 -0.000004 -18.200201
			CHANNELS 6 Xposition Yposition Zposition Zrotation Xrotation Yrotation
			JOINT LeftAnkle
			{
				OFFSET 0.000000 0.000000 -16.279900
				CHANNELS 6 Xposition Yposition Zposition Zrotation Xrotation Yrotation
				End Site
				{
					OFFSET 0.000000 -8.394100 0.000000
				}
			}
		}
	}
	JOINT RightHip
	{
		OFFSET -1.987999 -0.073502 -2.713001
		CHANNELS 6 Xposition Yposition Zposition Zrotation Xrotation Yrotation
		JOINT RightKnee
		{
			OFFSET 0.000000 -0.000004 -19.547802
			CHANNELS 6 Xposition Yposition Zposition Zrotation Xrotation Yrotation
			JOINT RightAnkle
			{
				OFFSET 0.000000 0.000000 -14.881199
				CHANNELS 6 Xposition Yposition Zposition Zrotation Xrotation Yrotation
				End Site
				{
					OFFSET 0.000000 -7.922699 0.000000
				}
			}
		}
	}
}
MOTION
Frames: 4
Frame Time: 0.041667
58.091301 -56.230495 19.968002 2266.084099 20.458963 5.148442 -0.779983 1.005798 5.403098 9.246959 8.929124 -1.264166 0.000004 -0.000001 4.236798 -1.080712 -3.641537 -0.680910 0.000006 -0.000002 9.874393 -22.684662 -11.235482 -7.948050 0.000004 -0.000003 2.173891 -2.595012 -2.982560 -2.897478 2.681604 -0.377602 5.432504 -15.873066 13.927643 -12.734908 5.161498 -0.000004 0.000003 -160.064923 -113.018122 -198.965842 0.000006 0.000022 -10.869090 87.190821 -3.560611 29.716715 0.000006 -0.000003 -13.344798 84.862799 15.123128 -4.327569 -2.381896 -1.419596 6.136596 16.491557 6.622060 0.163392 -4.550519 0.000000 -0.000004 -884.590203 -484.643449 -468.660479 0.000002 0.000000 -11.106503 320.836142 -29.232773 341.105439 0.000008 0.000002 -12.874289 -477.043798 6.201309 -135.575881 2.431909 0.469602 -2.489399 140.118462 -45.877558 143.419779 0.000006 0.000002 -18.200203 -139.887711 10.802472 128.461733 0.000005 0.000005 -16.279907 52.360469 15.291598 32.781998 -1.987990 -0.073502 -2.713004 -97.633360 -32.333057 -77.309060 -0.000009 -0.000006 -19.547792 -715.566626 168.766789 42.494080 -0.000003 -0.000010 -14.881187 553.271988 131.566246 75.084816
58.022499 -56.401993 19.463608 2265.960828 20.028527 5.115354 -0.779996 1.005795 5.403099 10.106285 9.888948 -1.170496 0.000010 -0.000005 4.236796 -1.505633 -3.511816 -0.666256 0.000011 -0.000012 9.874407 -22.499975 -9.048497 -7.543379 0.000004 -0.000005 2.173901 -2.397258 -2.311591 -2.730297 2.681609 -0.377604 5.432505 -15.771938 13.687131 -12.131828 5.161505 -0.000006 -0.000007 -159.431437 -115.513662 -197.073702 -0.000003 0.000003 -10.869097 86.427452 -3.622053 29.039543 0.000005 0.000000 -13.344797 85.088454 15.018411 -4.490771 -2.381886 -1.419599 6.136594 16.663365 6.168409 -0.516838 -4.550506 0.000000 0.000001 -886.488668 -486.139971 -471.351792 0.000006 -0.000008 -11.106501 320.800625 -29.091517 341.118171 0.000003 0.000005 -12.874300 -477.142208 6.347929 -135.915492 2.431904 0.469594 -2.489399 142.013525 -45.081444 145.088490 0.000014 -0.000002 -18.200197 -139.708938 10.267701 129.562022 -0.000003 0.000000 -16.279905 52.230409 15.847197 32.791714 -1.987999 -0.073504 -2.713003 -97.634139 -32.129022 -77.678901 -0.000001 -0.000005 -19.547787 -715.248940 169.976866 41.279973 0.000007 -0.000001 -14.881186 552.868843 131.731714 74.485105
57.958397 -56.566391 19.004505 2265.794718 19.639975 5.064922 -0.780011 1.005795 5.403092 10.993506 10.818251 -1.026560 0.000001 -0.000005 4.236796 -1.971633 -3.397843 -0.655461 0.000005 -0.000001 9.874406 -22.224966 -6.937332 -7.261066 -0.000002 0.000008 2.173889 -1.594819 -1.709118 -3.540000 2.681605 -0.377598 5.432501 -15.578053 13.420494 -11.576826 5.161502 -0.000002 -0.000006 -158.777555 -117.963678 -195.273797 0.000005 -0.000001 -10.869099 85.464313 -3.779769 28.333168 0.000007 -0.000004 -13.344798 85.007626 15.359466 -5.565945 -2.381889 -1.419602 6.136596 16.863708 5.714685 -1.221214 -4.550508 0.000000 0.000003 -888.146601 -487.629772 -473.727495 0.000009 -0.000002 -11.106500 320.991871 -29.014524 341.156529 0.000009 0.000006 -12.874289 -477.371538 6.557145 -136.306684 2.431893 0.469598 -2.489405 143.851789 -44.375012 146.671564 0.000009 0.000003 -18.200193 -139.479949 9.857867 130.554012 0.000002 -0.000000 -16.279896 52.069401 16.406232 32.694661 -1.988008 -0.073500 -2.713008 -97.699463 -31.834989 -78.072450 0.000002 -0.000009 -19.547796 -715.162935 171.700219 40.313614 0.000004 -0.000006 -14.881191 552.436027 131.898521 73.929018
57.898094 -56.723392 18.590706 2265.551017 19.256195 5.006207 -0.780003 1.005802 5.403094 11.900647 11.768019 -0.843570 -0.000002 0.000005 4.236804 -2.445184 -3.299032 -0.647906 -0.000002 0.000005 9.874395 -21.918012 -4.936631 -7.080966 -0.000001 0.000005 2.173889 -1.522220 -1.228424 -3.316137 2.681600 -0.377597 5.432502 -15.263955 13.094448 -11.041659 5.161496 0.000004 0.000012 -159.660016 -120.626441 -194.892208 -0.000004 0.000000 -10.869101 85.258376 -3.937854 27.684097 -0.000004 -0.000004 -13.344803 85.661302 15.487833 -5.264624 -2.381895 -1.419597 6.136590 17.127968 5.336082 -1.953254 -4.550516 -0.000008 0.000004 -889.476520 -489.136020 -475.708524 0.000001 -0.000004 -11.106502 321.146807 -28.966088 341.200734 -0.000010 0.000002 -12.874300 -477.659280 6.693293 -136.179984 2.431891 0.469607 -2.489401 145.572273 -43.729538 148.089279 -0.000001 -0.000001 -18.200207 -139.277174 9.474442 131.446881 -0.000000 0.000005 -16.279900 51.989457 16.897951 32.595159 -1.988001 -0.073491 -2.713006 -97.711047 -31.549501 -78.469803 0.000002 -0.000001 -19.547800 -715.012561 173.187246 39.326348 0.000007 -0.000008 -14.881189 552.178010 131.976153 73.509453
